<svg width="778" height="311" viewBox="0 0 778 311" fill="none" xmlns="http://www.w3.org/2000/svg" class="ui-w-[100px] ui-h-[57px] xl:ui-w-[125px] xl:ui-h-[72px]"><path d="M0 307.009V161.029H94.55V185.329H27.58V219.689H76.82V244.199H27.58V282.279H99.58V307.009H0Z" fill="#009982"></path><path d="M121.9 161.029H149.48V188.169H121.9V161.029ZM122.78 204.369H148.63V307.019H122.8L122.78 204.369Z" fill="#009982"></path><path d="M175.08 307.019V204.369H199.82L200.47 217.279C202.399 214.916 204.564 212.755 206.93 210.829C209.971 208.365 213.366 206.372 217 204.919C221.563 203.139 226.434 202.282 231.33 202.399C233.564 202.384 235.797 202.531 238.01 202.839C240.055 203.152 242.065 203.664 244.01 204.369L238.75 228.659C234.965 227.288 230.965 226.611 226.94 226.659C220.173 226.521 213.604 228.946 208.55 233.449C203.437 237.969 200.883 244.022 200.89 251.609V306.989L175.08 307.019Z" fill="#009982"></path><path d="M338.14 253.179V229.759H390.44V290.159C384.753 295.559 377.277 300.302 368.01 304.389C358.743 308.476 346.743 310.519 332.01 310.519C316.103 310.519 302.46 307.162 291.08 300.449C279.949 294.002 270.85 284.561 264.82 273.199C258.687 261.746 255.62 248.942 255.62 234.789C255.547 224.534 257.403 214.358 261.09 204.789C264.603 195.664 269.842 187.301 276.52 180.159C283.218 173.051 291.3 167.392 300.27 163.529C309.884 159.44 320.244 157.397 330.69 157.529C345.143 157.529 357.143 160.376 366.69 166.069C375.751 171.315 383.616 178.396 389.78 186.859L370.3 204.149C365.949 197.756 360.412 192.257 353.99 187.949C347.79 183.869 340.02 181.826 330.68 181.819C321.2 181.819 312.993 184.229 306.06 189.049C299.103 193.879 293.576 200.494 290.06 208.199C286.295 216.32 284.386 225.178 284.47 234.129C284.47 244.495 286.697 253.542 291.15 261.269C295.328 268.758 301.455 274.978 308.88 279.269C316.232 283.497 324.579 285.689 333.06 285.619C346.48 285.619 356.84 282.409 364.14 275.989V253.179H338.14Z" fill="#009982"></path><path d="M416.92 307.019V204.369H441.63L442.28 217.279C444.21 214.916 446.374 212.755 448.74 210.829C451.781 208.365 455.176 206.372 458.81 204.919C463.372 203.137 468.244 202.281 473.14 202.399C475.374 202.384 477.607 202.531 479.82 202.839C481.865 203.152 483.875 203.664 485.82 204.369L480.63 228.659C476.842 227.288 472.838 226.61 468.81 226.659C462.046 226.52 455.48 228.946 450.43 233.449C445.323 237.969 442.77 244.022 442.77 251.609V306.989L416.92 307.019Z" fill="#009982"></path><path d="M500.75 161.029H528.32V188.169H500.75V161.029ZM501.62 204.369H527.45V307.019H501.63L501.62 204.369Z" fill="#009982"></path><path d="M625.49 307.019L624.84 296.949C621.456 300.479 617.588 303.509 613.35 305.949C608.31 309.009 601.927 310.542 594.2 310.549C586.624 310.509 579.204 308.388 572.75 304.419C565.89 300.339 560.223 294.319 555.75 286.359C551.277 278.399 549.05 268.806 549.07 257.579C548.938 250.348 550.124 243.154 552.57 236.349C554.59 230.777 557.553 225.595 561.33 221.029C565.009 216.602 569.457 212.876 574.46 210.029C578.936 207.468 583.717 205.482 588.69 204.119C592.595 202.993 596.628 202.368 600.69 202.259C604.239 202.202 607.787 202.386 611.31 202.809C613.612 203.112 615.881 203.624 618.09 204.339C620.09 205.006 622.317 205.845 624.77 206.859V161.029H650.37V307.029L625.49 307.019ZM624.84 261.489V229.969C620.32 226.329 613.243 224.506 603.61 224.499C599.222 224.373 594.879 225.407 591.02 227.499C587.582 229.478 584.571 232.119 582.16 235.269C577.494 241.396 575.16 248.836 575.16 257.589C575.16 266.342 577.347 273.639 581.72 279.479C586.1 285.319 592.434 288.235 600.72 288.229C606.72 288.229 611.463 286.842 614.95 284.069C618.392 281.383 621.008 277.782 622.5 273.679C623.98 269.797 624.759 265.683 624.8 261.529" fill="#009982"></path><path d="M771.51 129.849C754.01 75.8489 703.71 40.1789 652.64 21.0089C567.91 -10.3111 463.46 -6.87115 382.18 33.0689C354.57 46.6385 329.289 64.5041 307.28 85.9988C306.378 86.7749 305.728 87.8015 305.411 88.9482C305.094 90.0948 305.125 91.3099 305.5 92.4389C306.003 93.9249 307.076 95.1503 308.482 95.8459C309.889 96.5416 311.513 96.6505 313 96.1489C314.27 95.8189 315.73 95.4689 317.11 95.1489C321.3 94.1489 325.63 93.1489 329.87 92.3889C361.49 86.0189 394.68 82.4789 427.59 83.3889C414.32 93.2789 401.77 104.109 390.79 116.569C390.541 116.965 390.438 117.436 390.5 117.9C390.562 118.364 390.785 118.792 391.131 119.108C391.476 119.425 391.921 119.61 392.388 119.632C392.856 119.654 393.317 119.512 393.69 119.229C408.566 106.038 424.635 94.2574 441.69 84.0389C469.54 85.8889 496.98 91.0389 522.85 100.609C508.667 112.039 495.687 124.886 484.11 138.949C483.763 139.36 483.593 139.892 483.638 140.429C483.683 140.965 483.939 141.461 484.35 141.809C484.761 142.156 485.293 142.326 485.83 142.281C486.366 142.236 486.863 141.98 487.21 141.569C499.856 128.923 513.552 117.371 528.15 107.039C529.483 106.099 530.817 105.166 532.15 104.239C549.771 111.48 566.398 120.936 581.63 132.379C582.06 132.683 582.59 132.811 583.111 132.737C583.632 132.663 584.105 132.392 584.433 131.98C584.761 131.567 584.918 131.045 584.873 130.521C584.828 129.996 584.583 129.509 584.19 129.159C570.31 117.534 555.044 107.672 538.74 99.7989C553.409 90.0657 568.835 81.525 584.87 74.2589C606.848 83.058 627.766 94.3021 647.23 107.779C652.06 110.919 658.39 115.909 663.18 119.349C663.584 119.641 664.083 119.771 664.578 119.715C665.073 119.658 665.53 119.419 665.858 119.043C666.186 118.668 666.362 118.183 666.351 117.685C666.34 117.186 666.144 116.71 665.8 116.349C656.11 107.117 645.748 98.6168 634.8 90.9189C623.007 82.6042 610.567 75.2473 597.6 68.9189C619.156 60.2754 641.686 54.2912 664.69 51.0989C690.23 63.2989 713.35 79.6889 731.94 101.099C791.94 171.769 752.88 253.769 684.58 300.799C683.859 301.29 683.354 302.038 683.168 302.89C682.982 303.742 683.13 304.632 683.58 305.379C684.054 306.149 684.814 306.7 685.693 306.91C686.573 307.12 687.5 306.972 688.27 306.499C701.309 298.564 713.558 289.399 724.85 279.129C766.67 241.549 790.1 185.289 771.46 129.879M557.9 23.1588C539.582 27.4397 521.63 33.1574 504.21 40.2589C484.275 37.2984 464.132 35.9607 443.98 36.2589C435.073 36.4255 426.17 36.8688 417.27 37.5888C449.354 27.1987 482.837 21.7727 516.56 21.4988C530.359 21.3178 544.158 21.8585 557.9 23.1188M336.17 78.3489C349.056 69.1377 362.675 60.9971 376.89 54.0089C411.595 48.3722 446.868 47.0923 481.89 50.1989C467.824 57.0863 454.237 64.9106 441.22 73.6188C406.138 70.2522 370.757 71.8445 336.12 78.3489M533.85 91.8189C532.303 93.0055 530.757 94.2055 529.21 95.4189C506.056 85.4821 481.66 78.7371 456.69 75.3688C469.664 68.3522 482.992 62.0104 496.62 56.3688C499.49 55.1888 502.38 54.0588 505.27 52.9388C510.77 53.7522 516.25 54.6688 521.71 55.6888C537.999 58.8246 554.041 63.1325 569.71 68.5789C557.228 75.4948 545.233 83.2562 533.81 91.8088M582.44 61.9489C577.593 59.8889 572.703 57.9522 567.77 56.1389C554.963 51.5264 541.877 47.7289 528.59 44.7689C536.95 42.1022 545.383 39.7022 553.89 37.5689C568.19 34.0089 582.65 31.1488 597.23 28.8788C612.089 31.8834 626.708 35.971 640.97 41.1089C620.711 45.7375 601.066 52.7322 582.44 61.9489Z" fill="#009982"></path></svg>